<?xml version="1.0" standalone="no"?>
<!DOCTYPE svg PUBLIC "-//W3C//DTD SVG 1.1//EN" "http://www.w3.org/Graphics/SVG/1.1/DTD/svg11.dtd">
<svg xmlns="http://www.w3.org/2000/svg">
<metadata>Copyright (C) 2023 by original authors @ fontello.com</metadata>
<defs>
<font id="fontello" horiz-adv-x="1000" >
<font-face font-family="fontello" font-weight="400" font-stretch="normal" units-per-em="1000" ascent="850" descent="-150" />
<missing-glyph horiz-adv-x="1000" />
<glyph glyph-name="mail" unicode="&#xe800;" d="M0 28v644q0 8 2 18l460-460q39-39 95-39 55 0 94 39l460 460q2-9 2-18v-644q0-37-26-62t-62-26h-937q-36 0-62 26t-26 62z m63 728q13 4 25 4h937q12 0 25-4l-463-463q-13-12-31-12t-30 12z" horiz-adv-x="1113.3" />

<glyph glyph-name="conch" unicode="&#xe800;" d="M563-1c-147 47-221 101-221 325 0 207 2 234-63 300l-42 42c45-45 92-53 267-53 192 0 312-75 312-342 0-263 0-352 0-352s-218 69-253 80z m-361 702l-70 70c33-33 62-97 51-209-9-83-51-160-51-253 0-149 111-248 300-248m383 243l-268-300m135-42l134 150" horiz-adv-x="1000" />

<glyph glyph-name="asana_head_to_knee" unicode="&#xe801;" d="M29 297c0 0 159 0 237 0 47 0 76-33 76-79 0-45-31-78-77-78-23 0-74 0-107 0-53 0-132 26-132 131 0 140 143 237 328 237 93 0 165-33 214-99 25-34 75-101 101-135 42-57 88-82 147-82 52 0 158 0 158 0v184m-636-184h234l-79 105-125 0m606 0h-172c9 16 14 34 14 53 0 58-47 105-105 105s-188 0-188 0" horiz-adv-x="1000" />

<glyph glyph-name="asana_lotus" unicode="&#xe802;" d="M605 640c0-59-47-106-105-106s-105 47-105 106c0 19 0 59 0 78 0 59 47 106 105 106s105-47 105-106c0-19 0-59 0-78z m145-664l-187 90-315-90m147 348l-27-175c0 0-102-46-144-68-42-21-92-49-92-118 0-54 39-89 91-89s172 34 277 62c105 29 205 62 205 62m-205-62c105-28 224-60 277-60s91 35 91 90c0 68-50 96-92 118-42 22-144 69-144 69l-27 171m-592-298c0 0 117 83 170 167s103 199 133 236 131 67 131 67v52m106 0v-52c0 0 101-30 131-67 30-37 81-151 133-236s170-167 170-167" horiz-adv-x="1000" />

<glyph glyph-name="asana_plow" unicode="&#xe803;" d="M474 245c0 0 114 0 158 0s79-36 79-79-36-79-79-79-632 0-632 0m974 53c-237 223-474 278-474 278s-53-55-53-147c0-105 53-184 53-184m474-26v175c-77 98-316 377-474 377-125 0-263-141-263-300 0-46 4-80 17-121h114" horiz-adv-x="1000" />

<glyph glyph-name="asana_ship" unicode="&#xe804;" d="M359 403c0 0-100 187-117 218-23 42-76 57-118 34-42-23-57-76-34-118 7-14 34-62 42-76 39-72 87-58 163-58s450 0 450 0-373 0-450 0c-109 0-109-103-71-168 35-62 118-253 250-253 68 0 111 41 142 74 116 125 358 426 358 426v105l-493-411-73 136" horiz-adv-x="1000" />

<glyph glyph-name="asana_tree" unicode="&#xe805;" d="M447 218c0-106 53-342 53-342h-132m79 921c0 0-157-88-157-210 0-82 52-132 52-132s0-52 0-210c0-116 33-198 92-369m32 209c128 0 192 25 192 66 0 78-105 127-105 127 0 158 0 177 0 177s52 53 52 132c0 122-158 210-158 210v53m0-184c-29 0-52-36-52-79s23-79 52-79 53 35 53 79-24 79-53 79z" horiz-adv-x="1000" />

<glyph glyph-name="asana_triangle" unicode="&#xe806;" d="M711-97l-224 342c151 0 171 9 182-69 6-38 48-300 48-300m-96 653c5-34-21-75-76-75-247 0-304-28-349-117-55-107-143-461-143-461h54c0 0 183 316 204 316s321-316 321-316h158m-214 972l56-394c15-105 30-157 105-157 14 0 64 0 79 0 43 0 79 36 79 79s-36 79-79 79c-68 0-184-1-184-1" horiz-adv-x="1000" />

<glyph glyph-name="asana_warrior" unicode="&#xe807;" d="M0 455c0 0 304 0 342 0 79 0 53-85 53-237-232-205-342-342-342-342h54c0 0 322 201 402 211s202 0 202 0v-211h131m158 632h-395c0 0 0 143 0 158 0 43-35 79-79 79-43 0-79-36-79-79 0-15 0-65 0-79 0-75 28-103 106-140 38-18 59-40 59-71 0-33-7-66-7-154 0 0 86-9 166-27 28-6 46-23 46-54 0-41-26-265-26-265" horiz-adv-x="1000" />

<glyph glyph-name="asana_warrior2" unicode="&#xe808;" d="M553 850v-368c79-27 79-75 79-106 0-33-27-154-27-154s86-9 166-27c28-6 46-23 46-54 0-41-26-265-26-265m-317 737c0 0-91 0-106 0-43 0-78-35-78-79 0-43 35-79 78-79 15 0 79 0 79 0s0-121 0-184c0 0-28-31-52-53-232-205-342-342-342-342h54c0 0 322 201 402 211s202 0 202 0v-211h131" horiz-adv-x="1000" />

<glyph glyph-name="buddha" unicode="&#xe809;" d="M763 141c0-134-112-207-169-240-27-16-60-25-94-25-34 0-67 10-94 26-57 32-169 105-169 239 0 57 0 273 0 314 0 146 118 263 263 263 145 0 263-117 263-263 0-41 0-257 0-314z m-263 183v-211m-221 158c0 0 47-26 76-26s68 0 68 0m154 0c0 0 39 0 68 0 29 0 76 26 76 26m-326-210c0 0 44-27 105-27 61 0 105 27 105 27m-368 315c0 0-24 27-53 27l0 0c-29 0-52-24-52-53v-263c0-29 23-53 52-53l0 0c29 0 53 24 53 53v289z m631-26c0 29-23 53-52 53l0 0c-29 0-53-27-53-27v-289c0-29 24-53 53-53l0 0c29 0 52 24 52 53v263z m-276 352c9 12 13 27 13 43 0 43-31 79-105 79s-105-36-105-79c0-17 4-32 14-44m354-298c0 62-25 137-88 158-40 13-96-53-175-53-58 0-131 54-159 54m159-186v53m-79-53c-26 0-79 27-105 27s-79 0-79 0m526 0c0 0-52 0-79 0s-79-27-105-27" horiz-adv-x="1000" />

<glyph glyph-name="dharmachakra" unicode="&#xe80a;" d="M816 350c0-174-142-316-316-316-174 0-316 142-316 316 0 174 142 316 316 316 174 0 316-142 316-316z m-316 53c-29 0-53-24-53-53s24-53 53-53 53 24 53 53-24 53-53 53z m0 0v394m0-894v394m53 53h394m-894 0h394m90 37l279 279m-632-632l279 279m74 0l279-279m-632 632l279-279" horiz-adv-x="1000" />

<glyph glyph-name="kundalini" unicode="&#xe80b;" d="M500-71l-447 684h894l-447-684z m0 409c6 15 6 65-43 65-39 0-62-26-62-69 0-53 39-89 105-89 53 0 105 38 105 117s-54 146-150 146c-99 0-165-67-165-174 0-116 94-194 210-194 151 0 211 112 211 231 0 94-73 242-255 242" horiz-adv-x="1000" />

<glyph glyph-name="lotus" unicode="&#xe80c;" d="M1000 140c-237 0-222-106-500-106-278 0-263 106-500 106m658 190c0 140-69 245-158 362-89-117-158-222-158-362 0-100 55-190 158-190 104 0 158 90 158 190z m-238 77c-71 75-210 101-365 101 45-135 74-239 178-306 81-52 150-62 267-62 0 123-1 185-80 267z m80-267c117 0 186 10 267 62 104 67 133 171 178 306-155 0-294-26-365-101-79-82-80-144-80-267z m-90 421c-48 44-87 70-173 105v-173m526 0v173c-86-35-125-61-173-105" horiz-adv-x="1000" />

<glyph glyph-name="man_well" unicode="&#xe80d;" d="M474 718c133 0 136-105 289-105 0-41 0-362 0-419 0-107-52-133-169-230-27-23-60-35-94-35-34 0-67 12-94 35-116 97-169 123-169 230 0 57 0 469 0 469s116 84 158 109 82 52 141 52c105 0 133-106 227-106 15 0 27 0 27 0m-290-289v-211m-198 158c0 0 42-26 68-26 26 0 53 0 53 0m154 0c0 0 27 0 53 0s68 26 68 26m-321-207c0 0 52-29 123-29 71 0 123 29 123 29m-386 260c0 0-24 26-53 26s-52-23-52-52v-106c0-58 47-105 105-105m526 0c58 0 105 47 105 105v106c0 29-23 52-52 52s-53-26-53-26m-289 26c-27 0-106 27-158 27-26 0-79-27-79-27m526 0c0 0-52 27-79 27-52 0-131-27-158-27m-184-447v-158m316 158v-158" horiz-adv-x="1000" />

<glyph glyph-name="manipura" unicode="&#xe80e;" d="M816 350c0-174-142-316-316-316s-316 142-316 316 142 316 316 316 316-142 316-316z m-414 300c-26 81 70 94 98 121 28-27 124-40 98-121m0-600c26-81-70-94-98-121-28 27-124 41-98 121m-158 486c-68 49 2 116 9 155 38-6 123 39 149-41m354-486c68-49-2-116-8-155-39 6-124-40-150 41m-414 300c-84 0-67 95-84 130 34 18 76 105 145 56m571-186c84 0 67-95 84-130-34-18-76-105-144-56m-511 0c-69-49-111 38-145 56 17 35 0 130 84 130m572 186c68 49 110-38 144-56-17-35 0-130-84-130m-414-300c-26-81-111-34-149-41-7 39-77 106-9 155m354 486c26 81 111 35 150 41 6-39 76-106 8-155m-256-502l-273 474m546 0l-546 0m546 0l-273-474" horiz-adv-x="1000" />

<glyph glyph-name="mudra_abhaya" unicode="&#xe80f;" d="M553 429c0 0 0 260 0 289s23 53 52 53 53-23 53-53 0-439 0-439c0-42 37-40 47-15 9 24 51 131 62 158 10 27 41 40 68 30 27-11 40-41 30-69-11-27-82-208-91-232-50-127-82-222-198-222-16 0-102 0-102 0m-132 447c0 0 0 261 0 290s-23 52-52 52-53-23-53-52 0-500 0-553c0-129 69-184 158-184 9 0 26 0 26 0m132 500c0 0 0 313 0 342s-24 53-53 53-53-24-53-53 0-342 0-342m0 0c0 29 0 260 0 289s-23 53-52 53-53-23-53-53 0-260 0-289" horiz-adv-x="1000" />

<glyph glyph-name="mudra_anjali" unicode="&#xe810;" d="M947-18c0 0-227 0-236 0-89 0-211 54-211 184 0 0 0 418 0 500 0 29 24 52 53 52s52-13 52-13v-302m-105 263c0 0 0 76 0 105s24 53 53 53 52-13 52-13v-224c0 0 58-196 97-312 6-16 15-30 35-30s210 0 210 0m-894-263c0 0 228 0 237 0 88 0 210 54 210 184 0 0 0 418 0 500 0 29-24 52-53 52s-52-13-52-13v-302m-342-158c0 0 190 0 210 0s30 14 35 30c39 116 97 312 97 312v224c0 0 23 13 52 13s53-24 53-53 0-105 0-105" horiz-adv-x="1000" />

<glyph glyph-name="mudra_dhyana" unicode="&#xe811;" d="M645 149c52 7 66-24 66-46 0-20-15-41-36-48-54-18-128-21-175-21-78 0-205 29-299 123-106 105-145 182-175 193v158c0 0 53 0 132 0s158-53 158-53 102 0 131 0 53-23 53-52-24-53-53-53-68 0-105 0-52-20-52-53c0-102 109-157 236-157 66 0 179 3 290 78 123 84 132 123 158 132v158c0 0-53 0-132 0s-158-53-158-53-102 0-131 0-53-23-53-52 24-53 53-53 68 0 105 0c23 0 53-2 53-35 0-45-80-70-185-70-67 0-123 25-161 49-37 24-75-7-75-7" horiz-adv-x="1000" />

<glyph glyph-name="mudra_jnana" unicode="&#xe812;" d="M79 218c0 0 0-17 0-26 0-89 55-158 184-158 79 0 143 0 263 0 136 0 274 0 290 0 29 0 52 24 52 53 0 29-23 53-52 53-29 0-290 0-290 0m335 105c0 0 56 0 60 0 29 0 53 23 53 52s-24 53-53 53-342 0-342 0m191-210c0 0 94 0 98 0 30 0 53 23 53 52s-23 53-53 53-289 0-289 0m80 204c0 0-79 64-87 71-22 18-26 51-7 74 18 22 51 26 74 7 9-7 56-45 91-74 32-25 33-39 33-54 0-28-11-47-48-70-65-42-112-53-112-53m-524-79c0 0 0 34 0 49 0 117 166 344 302 345 27 0 90 1 119 1 29 0 53-23 53-53 0-29-24-52-53-52-29-1-101-1-114-1 0 0-44-26-44-52s44-53 158-53c83 0 108 26 113 31" horiz-adv-x="1000" />

<glyph glyph-name="mudra_surya" unicode="&#xe813;" d="M553 429c0 0 0 260 0 289s23 53 52 53 53-23 53-53 0-368 0-368m-184-421c0 0 63 0 79 0 116 0 210 127 210 263 0 26-23 73-40 105-17 33-35 53-78 53 0 0-129 0-158 0s-53-24-53-53 24-52 53-52 131 0 131 0c-74 0-171-53-171-184m-105 315c0 0 0 261 0 290s-23 52-52 52-53-23-53-52 0-500 0-553c0-129 69-184 158-184 9 0 26 0 26 0m132 500c0 0 0 313 0 342s-24 53-53 53-53-24-53-53 0-342 0-342m0 79c0 29-23 53-52 53s-53-24-53-53 0-129 0-158 24-53 53-53 52 24 52 53 0 129 0 158z" horiz-adv-x="1000" />

<glyph glyph-name="muladahara" unicode="&#xe814;" d="M798 350c0-164-133-298-298-298s-298 134-298 298 134 298 298 298 298-133 298-298z m-298-210l184 315h-368l184-315m-210-36c0-160 131-137 210-216 79 79 211 56 211 216 0 26 0 466 0 492 0 160-132 137-211 216-79-79-210-56-210-216 0-26 0-466 0-492z m-36 457c-160 0-137-132-216-211 79-79 56-210 216-210 26 0 466 0 492 0 160 0 137 131 216 210-79 79-56 211-216 211-26 0-466 0-492 0z" horiz-adv-x="1000" />

<glyph glyph-name="om" unicode="&#xe815;" d="M763 824c0 0-52-27-104-27-55 0-97 27-180 27-154 0-189-136-189-136s0-184 0-285 79-211 210-211c131 0 211 109 211 211s0 296 0 296c-20-4-35-7-52-7-80 0-107 26-180 26-34 0-62-16-79-39m-5-250c0-51 39-105 105-105 66 0 105 54 105 105m-181 92c0-33-13-43-29-43s-29 10-29 43c0 34 13 44 29 44s29-10 29-44z m210 0c0-33-13-43-29-43s-29 10-29 43c0 34 13 44 29 44s29-10 29-44z m-29-303c0-52 27-71 106-108 117-54 184-49 210-234h-842c26 185 93 180 211 234 78 37 105 56 105 108m-316 132c0-232 189-421 421-421s421 189 421 421-188 421-421 421-421-188-421-421h526m185-105c0 0-472 0-527 0-72 0-131-59-131-132s59-131 131-131c55 0 408 0 474 0 73 0 131 59 131 131s0 138 0 211-58 131-131 131c-66 0-419 0-474 0-72 0-131-59-131-131 0-31 0-57 0-57m52 320v-84c0 0-30-15-75-35-36-15-83-36-83-118 0-82 0-316 0-316h948c0 0 0 234 0 316 0 82-42 100-78 116-37 16-178 81-178 81s-11 40-18 66c-7 27-18 53-67 53-26 0-214 0-266 0s-60-26-67-53-21-80-21-80m-45-89c0 0 68 58 134 64 39 3 79-13 79-64 0-46-40-87-79-94 46 0 237-31 237-210 0-93-66-161-167-158-142 4-170 121-265 152-44 14-81-11-81-11m598 38c0 0 39-48 88-48 67 0 97 48 89 142-8 90-102 200-199 200-113 0-98-116-201-121m-99 332c0 0 116-105 246-105 87 0 115 79 115 79m-137 52c-7 0-13-6-13-13s6-13 13-13 13 6 13 13-6 13-13 13z" horiz-adv-x="1000" />

<glyph glyph-name="sahasara" unicode="&#xe816;" d="M363 271c-200-116 19-363 19-363s313 105 197 305m58 216c200 116-19 363-19 363s-313-105-197-305m79-295c0-231 323-165 323-165s67 323-165 323m-158 158c0 231-323 165-323 165s-66-323 165-323m295-79c200-116 305 197 305 197s-247 219-363 19m-216-58c-200 116-305-197-305-197s247-219 363-19m0 0c-116-200 197-305 197-305s219 247 19 363m-58 216c116 200-197 305-197 305s-219-247-19-363m216-216c116-200 363 19 363 19s-105 313-305 197m-216 58c-116 200-363-19-363-19s105-313 305-197m295 79c231 0 165 323 165 323s-323 67-323-165m-158-158c-231 0-165-323-165-323s323-67 323 165m158 158c0-87-71-158-158-158s-158 71-158 158 71 158 158 158 158-71 158-158z" horiz-adv-x="1000" />

<glyph glyph-name="svadhisthana" unicode="&#xe817;" d="M763 350c0-145-118-263-263-263-145 0-263 118-263 263 0 145 118 263 263 263 145 0 263-118 263-263z m-79 79c0-102-82-184-184-184-102 0-184 82-184 184 0 102 82 184 184 184 102 0 184-82 184-184z m-316 149c-63 109 104 177 132 205 28-28 195-96 132-205m0-456c63-109-104-177-132-205-28 28-195 96-132 205m-131 228c-126 0-102 178-112 217 38 10 180 120 243 11m395-228c127 0 102-178 112-217-38-10-180-120-243-11m-264 0c-63-109-205 1-243 11 10 39-14 217 112 217m395 228c63 109 205-1 243-11-10-39 14-217-112-217" horiz-adv-x="1000" />

<glyph glyph-name="svastika" unicode="&#xe818;" d="M351 508c0 4-4 8-9 8-4 0-8-4-8-8 0-5 4-8 8-8 5 0 9 3 9 8z m299-316c0-4 3-8 8-8 5 0 8 4 8 8 0 5-4 9-8 9s-8-4-8-9z m8 308c4 0 8 3 8 8 0 4-4 8-8 8-5 0-8-4-8-8 0-5 3-8 8-8z m-316-300c-4 0-8-3-8-8 0-4 4-8 8-8 5 0 9 4 9 8 0 5-4 8-9 8z m-210 518c26-26 52-52 52-131s0-237 0-237h632c0 0 0-158 0-237s26-105 52-131m0 736c-26-26-52-52-131-52s-237 0-237 0v-632c0 0-158 0-237 0s-105-26-131-52" horiz-adv-x="1000" />

<glyph glyph-name="vishudda" unicode="&#xe819;" d="M816 350c0-174-142-316-316-316-174 0-316 142-316 316 0 174 142 316 316 316 174 0 316-142 316-316z m-316 158c-87 0-158-71-158-158 0-87 71-158 158-158 87 0 158 71 158 158 0 87-71 158-158 158z m175 105c47 70 94 37 123 35 2-29 35-76-35-123m-438-438c-47-70-94-37-123-35-2 29-35 76 35 123m526 0c70-47 37-94 35-123-29-2-76-35-122 35m-439 438c-70 47-37 94-35 123 29 2 76 35 123-35m485-201c82 16 92-41 111-62-19-21-29-78-111-62m-620 0c-82-16-92 41-111 62 19 21 29 78 111 62m372-372c16-82-41-93-62-111-21 18-78 29-62 111m0 620c-16 82 41 92 62 111 21-19 78-29 62-111m0 0c16 82 72 70 99 79 13-25 61-56 15-126m-238-573c-16-82-72-70-99-79-13 25-61 57-14 127m485 200c82-16 70-72 79-99-25-13-56-61-126-15m-573 238c-82 16-70 72-79 99 25 13 56 61 127 15m525 0c70 46 101-2 126-15-9-27 3-83-79-99m-573-238c-70-46-101 2-126 15 9 27-3 83 79 100m485-202c47-70-1-101-14-126-27 9-83-3-99 79m-238 573c-46 70 2 101 15 126 27-9 83 3 99-79m62-626l-273 474m0 0l546 0m0 0l-273-474" horiz-adv-x="1000" />

<glyph glyph-name="woman_well" unicode="&#xe81a;" d="M269 633c44 82 131 138 231 138 145 0 263-118 263-263 0-145 0-241 0-314 0-138-137-210-188-241-23-14-48-24-75-24-27 0-52 10-75 24-51 31-188 103-188 241 0 73 0 169 0 314 0 22 3 43 8 64m255-196v-210m-198 158c0 0 42-27 68-27 26 0 53 0 53 0m154 0c0 0 27 0 53 0s68 27 68 27m-289-208c0 0 43-29 91-29 48 0 91 29 91 29m-354 260c0 0-24 27-53 27s-52-24-52-53v-53c0-58 47-105 105-105m526 0c58 0 105 47 105 105v53c0 29-23 53-52 53s-53-27-53-27m-342 53c-26 0-53 26-105 26-26 0-79-26-79-26m526 0c0 0-52 26-79 26-52 0-79-26-105-26m-184-458v-121m210 121v-121m158 579c0 0-292 184-335 184s-65-34-65-34m242-608c0 0 44-95 218-95 45 0 72 0 72 0m-132 316c0-102 30-210 132-210" horiz-adv-x="1000" />

<glyph glyph-name="yin_yang" unicode="&#xe81b;" d="M921 350c0-233-188-421-421-421-232 0-421 188-421 421 0 233 189 421 421 421 233 0 421-188 421-421z m-421-421c116 0 211 94 211 211s-95 210-211 210-210 94-210 211 94 210 210 210m0-158c-29 0-53-23-53-52s24-53 53-53 53 24 53 53-24 52-53 52z m53-473c0 29-24 52-53 52s-53-23-53-52 24-53 53-53 53 23 53 53z" horiz-adv-x="1000" />

<glyph glyph-name="yonilingam" unicode="&#xe81c;" d="M562 60l43-131h-368l44 131m272 290c0 0 0 217 0 290s-59 131-132 131-131-59-131-131 0-290 0-290m710 0h-963c35-180 194-316 384-316 95 0 182 34 250 91 68 56 145 120 224 120 26 0 105 0 105 0s-53 0-79 0" horiz-adv-x="1000" />

<glyph glyph-name="ajna" unicode="&#xe81d;" d="M763 350c0-145-118-263-263-263-145 0-263 118-263 263 0 145 118 263 263 263 145 0 263-118 263-263z m-408 220c-24 10-49 17-75 17-160 0-163-158-242-237 79-79 82-237 242-237 26 0 52 7 75 17m290 0c23-10 49-17 75-17 160 0 163 158 242 237-79 79-82 237-242 237-26 0-51-7-75-17m-373-88l235-395m221 395l-456 0m235-395l221 395" horiz-adv-x="1000" />

<glyph glyph-name="anahara" unicode="&#xe81e;" d="M184 350c0 174 142 316 316 316s316-142 316-316-142-316-316-316-316 142-316 316z m43 158c-73 42-25 101-25 140 39 0 98 48 140-24m432-432c72-42 24-101 24-140-39 0-98-48-140 25m0 547c42 72 101 24 140 24 0-39 48-98-25-140m-431-431c-42-73-101-25-140-25 0 39-48 98 25 140m-43 158c-84 0-71 75-91 109 34 19 61 91 134 49m589-158c84 0 71-75 91-109-34-19-61-91-134-49m-273 474c0 84 75 71 109 91 20-34 91-61 49-133m-158-590c0-84-75-71-109-91-19 34-91 61-49 134m-115 115c-73-42-100 30-134 49 20 34 7 109 91 109m590 158c72 42 99-30 133-49-20-34-7-109-91-109m-474 274c-42 72 30 99 49 133 34-20 109-7 109-91m158-589c42-73-29-100-49-134-34 20-109 7-109 91m0 632l274-474m-547 0l547 0m-547 0l273 474m-182-316l-91 158m273-474l-91 158m0 316l-182 0m546 0h-182m0-316l-91-158m273 474l-91-158" horiz-adv-x="1000" />

<glyph glyph-name="asana_bow" unicode="&#xe81f;" d="M711 462l-218-211-258 97 76 258m534-134l82 81c0 0-85 103-100 120-48 51-112 68-177 6-66-62-52-127-4-177 16-17 55-50 55-50m-488 185c-101-215-134-261-134-313 0-31 15-64 38-87 116-114 235-203 383-203 167 0 316 193 316 280 0 78-33 108-115 138-558 211-558 211-558 211" horiz-adv-x="1000" />

<glyph glyph-name="asana_cat" unicode="&#xe820;" d="M895 34h-79v512m0-403c0 0 19-3 26-3 73 0 132 58 132 131 0 30-13 55-27 79-105 184-199 316-368 316-142 0-342-105-342-237 0-56 10-114 35-278l-193-11-40-106c0 0 255 0 282 0 43 0 74 27 74 79s0 237 0 237 66 105 184 105c55 0 132-79 132-79l-71-73 71-89" horiz-adv-x="1000" />

<glyph glyph-name="asana_chair" unicode="&#xe821;" d="M579-124h-158l60 172c-111 54-191 53-191 139 0 84 87 97 194 271 60 97 69 281 69 339 0 27 0 53 0 53m36-354l37 107c0 0-80 37-119 56-40 18-87 1-105-39-18-39-1-86 39-105 39-18 71-33 71-33s41-42 41-119c0-52-23-96-86-158 112-59 139-80 139-123 0-37-20-62-96-206" horiz-adv-x="1000" />

<glyph glyph-name="asana_cobra" unicode="&#xe822;" d="M792 398c-71-128-162-258-516-258-115 0-250 0-250 0v-132m0 53c0 0 255-27 492-27 316 0 350 204 350 237 0 70-62 113-115 153-12 8-52 38-63 47-35 26-42 76-16 111 26 34 75 42 110 15 12-8 127-94 127-94l-38-55m-214-214l106-200h77" horiz-adv-x="1000" />

<glyph glyph-name="asana_dog" unicode="&#xe823;" d="M211 34h-185c0 0 38 197 147 485 49 132 107 147 176 147 79 0 120-61 204-184 66-98 289-448 368-448 26 0 79 0 79 0m-220 125c0 0-7-72-102-72-87 0-125 99-125 133 0 38 9 62 16 77-26 0-85 0-130 40s-76 112-113 150c0 0-123-168-211-453" horiz-adv-x="1000" />

<glyph glyph-name="asana_equestrian" unicode="&#xe824;" d="M26-97c0 0 120-27 219-27 151 0 518 170 518 170v-170h132m-236 586c-111-211-236-413-336-461-101-47-297-24-297-24v-127m570 285c0 0 161 60 228 60 28 0 46-23 46-54 0-41-26-265-26-265m-101 623l58 115c0 0-124 79-141 88-52 28-108 25-144-42-36-67-8-116 44-143 17-10 40-24 99-55 91-49 104-81 104-165 0-33 0-359 0-447" horiz-adv-x="1000" />

<glyph glyph-name="asana_fire_breath" unicode="&#xe825;" d="M633 34c-23 0-212 0-212 0s-79 21-79 106c0 72 0 368 0 368s69 0 97 0c45 0 78-19 104-63 55-95 206-355 206-355m-284 281l100-171c0 0 132-65 147-74 32-17 51-50 51-92 0-52-34-105-105-105-67 0-291 0-291 0l54 105m132 500c0 0 0 126 0 184s-47 106-106 106-105-47-105-106 0-289 0-289" horiz-adv-x="1000" />

<glyph glyph-name="asana_forward_bend_c" unicode="&#xe826;" d="M463 278c0 0 24-67 43-121 20-55 80-84 135-64 55 20 83 80 63 135-11 31-42 117-66 184-55 151-187 306-322 306-125 0-184-76-184-164 0-132 129-195 210-625h184m-79 0c-26 249-73 454-112 607 74-160 165-186 237-186 54 0 102 29 131 57 105 100 233 222 233 222" horiz-adv-x="1000" />

<glyph glyph-name="asana_half_tortoise" unicode="&#xe827;" d="M265 297c-23 0-160 0-160 0s-79 22-79 106c0 89 81 158 226 158 164 0 256-85 347-158 131-106 263-211 401-211m-842 211c0 0 103 0 132 0 62 0 105-44 105-106 0-52-35-105-105-105-68 0-239 0-239 0l54 105m342 27v-132c0 0 142 0 158 0 58 0 106 47 106 105 0 19 0 19 0 19" horiz-adv-x="1000" />

<glyph glyph-name="basket" unicode="&#xe828;" d="M950 715q23 0 39-18t14-42l-53-365q-2-18-17-31t-34-12l-590 0 9-53 528 0q22 0 37-16t16-36-16-37-37-15l-572 0q-20 0-35 13t-16 30l-98 582-72 0q-22 0-37 15t-16 37 16 36 37 16l116 0q19 0 34-12t17-32l11-60 719 0z m-60-105l-200 0 0-103 185 0z m-252 0l-157 0 0-103 157 0 0 103z m0-156l-157 0 0-104 157 0 0 104z m-208 156l-182 0 18-105q3 2 8 2l156 0 0 103z m-156-156l17-104 139 0 0 104-156 0z m416-104l164 0 14 104-178 0 0-104z m-416-390q0 78 77 78 79 0 79-78 0-79-79-79-77 0-77 79z m469 0q0 78 77 78 79 0 79-78 0-79-79-79-77 0-77 79z" horiz-adv-x="1003" />

<glyph glyph-name="comment-alt2" unicode="&#xe829;" d="M409 685q-115 0-197-82t-82-196q0-114 80-197l32-32 0-65q10 6 28 17t26 18l47-12q34-9 66-9 115 0 197 82t82 198-82 196-197 82z m0 112q162 0 276-114t114-276-114-277-276-114q-42 0-92 12l-187-125 1 229q-113 115-113 275 0 162 115 276t276 114z" horiz-adv-x="817" />

<glyph glyph-name="instagram" unicode="&#xf16d;" d="M571 350q0 59-41 101t-101 42-101-42-42-101 42-101 101-42 101 42 41 101z m77 0q0-91-64-156t-155-64-156 64-64 156 64 156 156 64 155-64 64-156z m61 229q0-21-15-36t-37-15-36 15-15 36 15 36 36 15 37-15 15-36z m-280 123q-4 0-43 0t-59 0-54-2-57-5-40-11q-28-11-49-32t-33-49q-6-16-10-40t-6-58-1-53 0-59 0-43 0-43 0-59 1-53 6-58 10-40q12-28 33-49t49-32q16-6 40-11t57-5 54-2 59 0 43 0 42 0 59 0 54 2 58 5 39 11q28 11 50 32t32 49q6 16 10 40t6 58 1 53 0 59 0 43 0 43 0 59-1 53-6 58-10 40q-11 28-32 49t-50 32q-16 6-39 11t-58 5-54 2-59 0-42 0z m428-352q0-128-3-177-5-116-69-180t-179-69q-50-3-177-3t-177 3q-116 6-180 69t-69 180q-3 49-3 177t3 177q5 116 69 180t180 69q49 3 177 3t177-3q116-6 179-69t69-180q3-49 3-177z" horiz-adv-x="857.1" />

<glyph glyph-name="copyright" unicode="&#xf1f9;" d="M642 251v-61q0-28-21-50t-52-34-66-18-65-6q-115 0-192 78t-76 193q0 113 76 189t189 76q19 0 42-3t52-10 51-19 39-31 16-45v-61q0-9-9-9h-66q-9 0-9 9v39q0 24-37 38t-76 13q-79 0-128-51t-49-132q0-85 51-140t130-55q38 0 77 14t39 37v39q0 4 3 6t5 3h67q3 0 6-3t3-6z m-213 456q-73 0-139-28t-114-76-76-114-29-139 29-139 76-113 114-77 139-28 138 28 114 77 76 113 29 139-29 139-76 114-114 76-138 28z m428-357q0-117-57-215t-156-156-215-58-216 58-155 156-58 215 58 215 155 156 216 58 215-58 156-156 57-215z" horiz-adv-x="857.1" />

<glyph glyph-name="telegram" unicode="&#xf2c6;" d="M664 121l82 386q5 25-6 36t-29 3l-482-185q-16-6-22-14t-2-15 18-11l124-38 286 180q12 8 18 3 4-3-3-8l-231-210-9-127q13 0 25 13l60 58 125-93q36-20 46 22z m336 229q0-102-40-194t-106-160-160-106-194-40-194 40-160 106-106 160-40 194 40 194 106 160 160 106 194 40 194-40 160-106 106-160 40-194z" horiz-adv-x="1000" />

<glyph glyph-name="twitter-squared" unicode="&#xf304;" d="M714 510q-31-14-67-19 38 22 52 65-37-21-75-28-34 36-85 36-49 0-83-34t-35-83q0-16 3-27-72 4-135 37t-107 86q-16-28-16-59 0-64 51-98-27 1-56 15v-1q0-42 28-75t68-40q-16-5-28-5-7 0-22 3 12-36 42-59t67-23q-64-50-145-50-15 0-28 2 82-53 180-53 62 0 117 20t94 53 67 76 42 91 13 94q0 10 0 15 35 25 58 61z m143 108v-536q0-66-47-113t-114-48h-535q-67 0-114 48t-47 113v536q0 66 47 113t114 48h535q67 0 114-48t47-113z" horiz-adv-x="857.1" />

<glyph glyph-name="facebook-squared" unicode="&#xf308;" d="M696 779q67 0 114-48t47-113v-536q0-66-47-113t-114-48h-104v333h111l16 129h-127v83q0 31 13 46t51 16l68 1v115q-35 5-100 5-75 0-121-44t-45-127v-95h-112v-129h112v-333h-297q-67 0-114 48t-47 113v536q0 66 47 113t114 48h535z" horiz-adv-x="857.1" />
</font>
</defs>
</svg>
